<svg width="18" height="18" viewBox="0 0 18 18" fill="none" xmlns="http://www.w3.org/2000/svg">
<path fill-rule="evenodd" clip-rule="evenodd" d="M9 0.75C4.44365 0.75 0.75 4.44365 0.75 9C0.75 13.5563 4.44365 17.25 9 17.25C13.5563 17.25 17.25 13.5563 17.25 9C17.25 4.44365 13.5563 0.75 9 0.75ZM12.9053 7.28033C13.1982 6.98744 13.1982 6.51256 12.9053 6.21967C12.6124 5.92678 12.1376 5.92678 11.8447 6.21967L7.875 10.1893L6.15533 8.46967C5.86244 8.17678 5.38756 8.17678 5.09467 8.46967C4.80178 8.76256 4.80178 9.23744 5.09467 9.53033L7.34467 11.7803C7.63756 12.0732 8.11244 12.0732 8.40533 11.7803L12.9053 7.28033Z" fill="#26A95F"/>
</svg>
